<svg width="50" height="50" viewBox="0 0 50 50" fill="none" xmlns="http://www.w3.org/2000/svg">
<path d="M49 25C49 38.2548 38.2548 49 25 49C11.7452 49 1 38.2548 1 25C1 11.7452 11.7452 1 25 1C38.2548 1 49 11.7452 49 25Z" fill="#20327F"/>
<path d="M10.6 18.8429C10.6 17.0913 12.0328 15.6714 13.8003 15.6714H36.7355C38.5029 15.6714 39.9357 17.0913 39.9357 18.8429V34.1714C39.9357 35.923 38.5029 37.3429 36.7355 37.3429H13.8003C12.0328 37.3429 10.6 35.923 10.6 34.1714V18.8429Z" fill="white"/>
<path d="M19.134 13.5571C19.134 12.6814 19.8504 11.9714 20.7342 11.9714H29.2682C30.1519 11.9714 30.8683 12.6814 30.8683 13.5571V15.6714H19.134V13.5571Z" fill="white"/>
<path d="M32.0793 22.2959V28.3355M18.6138 22.2959V28.3355M11.1334 25.45H38.869M49 25C49 38.2548 38.2548 49 25 49C11.7452 49 1 38.2548 1 25C1 11.7452 11.7452 1 25 1C38.2548 1 49 11.7452 49 25ZM13.8003 37.3429H36.7355C38.5029 37.3429 39.9357 35.923 39.9357 34.1714V18.8429C39.9357 17.0913 38.5029 15.6714 36.7355 15.6714H13.8003C12.0328 15.6714 10.6 17.0913 10.6 18.8429V34.1714C10.6 35.923 12.0328 37.3429 13.8003 37.3429ZM30.8683 15.6714V13.5571C30.8683 12.6814 30.1519 11.9714 29.2682 11.9714H20.7342C19.8504 11.9714 19.134 12.6814 19.134 13.5571V15.6714H30.8683Z" stroke="#20327F" stroke-width="2"/>
</svg>
