<svg width="11" height="10" viewBox="0 0 11 10" fill="none" xmlns="http://www.w3.org/2000/svg">
<path d="M6.58438 9.36706L11 5.02217L6.58438 0.677285C6.5445 0.626022 6.49383 0.583745 6.43581 0.553316C6.37779 0.522886 6.31377 0.505015 6.24808 0.500913C6.18239 0.49681 6.11656 0.506571 6.05506 0.529536C5.99356 0.5525 5.93782 0.588132 5.89161 0.634018C5.84539 0.679904 5.80979 0.734974 5.78722 0.795499C5.76464 0.856024 5.75561 0.920591 5.76074 0.98483C5.76586 1.04907 5.78503 1.11148 5.81695 1.16783C5.84886 1.22419 5.89277 1.27318 5.9457 1.31148L9.24937 4.57239H0.459483C0.337621 4.57239 0.22075 4.61978 0.13458 4.70413C0.0484104 4.78848 0 4.90288 0 5.02217C0 5.14146 0.0484104 5.25587 0.13458 5.34022C0.22075 5.42457 0.337621 5.47195 0.459483 5.47195H9.24937L5.9457 8.73287C5.85979 8.81756 5.81176 8.9322 5.81219 9.05156C5.81262 9.17091 5.86147 9.28521 5.94799 9.36931C6.03452 9.45341 6.15162 9.50042 6.27355 9.5C6.39548 9.49958 6.51225 9.45176 6.59816 9.36706H6.58438Z" fill="white"/>
</svg>
