<svg width="125" height="47" viewBox="0 0 125 47" fill="none" xmlns="http://www.w3.org/2000/svg">
<path d="M34.0587 31.3403C34.0587 33.8607 33.1724 35.7304 31.4096 36.9286C29.637 38.1372 27.4749 38.7363 24.9037 38.7363C24.4362 38.7363 24.105 38.726 23.9005 38.7053C23.9005 40.6886 23.959 43.3124 24.0661 46.5662H19.8684C19.995 43.5086 20.0632 39.9139 20.0632 35.7717C20.0632 31.9704 19.995 28.6855 19.8684 25.9275H22.4688C22.8389 25.9275 23.5402 25.9069 24.592 25.8759C25.6341 25.8449 26.5399 25.8242 27.3093 25.8242C29.1988 25.8242 30.796 26.2787 32.1011 27.1877C33.4062 28.1071 34.0587 29.4913 34.0587 31.3403ZM30.2019 32.208C30.2019 29.9458 28.7897 28.8198 25.9555 28.8198C25.2446 28.8198 24.5044 28.9025 23.7155 29.0574C23.8226 31.051 23.881 33.3132 23.881 35.8337C24.1343 35.8543 24.4167 35.8647 24.7478 35.8647C28.3806 35.8647 30.2019 34.6458 30.2019 32.208Z" fill="#910606"/>
<path d="M47.2167 46.5661H43.5546C43.5546 46.029 43.204 44.5208 42.5125 42.0314H37.224C36.5033 44.4795 36.1527 45.998 36.1527 46.5661H32.7049C32.7049 46.2459 33.5912 43.6635 35.3735 38.7982C37.1558 33.9329 38.0421 31.2575 38.0421 30.7617H42.3664C42.3664 31.2266 43.1748 33.8606 44.7818 38.6743C46.4083 43.4982 47.2167 46.1219 47.2167 46.5661ZM41.9282 39.7072C40.6231 35.534 39.9705 33.2718 39.9705 32.9413H39.7855C39.7855 33.2615 39.1135 35.5134 37.7597 39.7072H41.9282Z" fill="#910606"/>
<path d="M60.5791 46.5662H57.1898C56.3035 43.7049 55.6218 41.9385 55.1543 41.2671C54.6771 40.5957 53.9174 40.2651 52.8655 40.2651C52.4272 40.2651 51.9987 40.2651 51.5994 40.2754C51.5994 42.3517 51.6384 44.4486 51.7065 46.5765H48.5217C48.6191 44.1387 48.6678 41.3807 48.6678 38.3128C48.6678 35.3688 48.6191 32.8587 48.5217 30.7825H50.4988C50.7228 30.7825 51.2098 30.7721 51.9305 30.7411C52.661 30.7205 53.333 30.6998 53.9466 30.6998C57.443 30.6998 59.1961 31.9704 59.1961 34.5115C59.1961 36.5258 58.193 37.9306 56.1964 38.726V38.9119C56.9658 39.1392 57.6378 39.7796 58.2222 40.8229C58.8163 41.8559 59.5954 43.7669 60.5791 46.5662ZM56.284 35.3998C56.284 33.7884 55.3101 32.9827 53.3525 32.9827C52.6318 32.9827 51.9987 33.0343 51.4533 33.148C51.541 34.3979 51.5799 36.0403 51.5799 38.0546C51.9987 38.0752 52.3493 38.0752 52.6415 38.0752C55.0764 38.0855 56.284 37.1869 56.284 35.3998Z" fill="#910606"/>
<path d="M72.432 30.7617L72.3541 33.3751C70.825 33.2512 69.3933 33.1892 68.0395 33.1892C68.0201 34.718 68.0201 36.4224 68.0201 38.3024C68.0201 41.2153 68.059 43.9734 68.1467 46.5661H64.9424C65.0398 43.994 65.0885 41.236 65.0885 38.3024C65.0885 36.4534 65.069 34.7593 65.0398 33.1892C63.9685 33.1892 62.4881 33.2512 60.6084 33.3855L60.696 30.7617H72.432Z" fill="#910606"/>
<path d="M86.1353 46.5661H83.3109C83.3109 46.2356 82.259 44.4795 80.1651 41.3083C77.964 37.9718 76.7173 35.6786 76.4154 34.4494H76.2304C76.4251 36.2158 76.5128 37.8272 76.5128 39.2527C76.5128 41.2463 76.5615 43.6841 76.6686 46.5558H73.8637C73.9806 44.0457 74.039 41.298 74.039 38.2921C74.039 35.3378 73.9806 32.8277 73.8637 30.7617H77.2627C77.2627 31.1956 78.2075 32.9 80.0872 35.8956C82.0935 39.0771 83.2427 41.2257 83.5446 42.3619H83.7199C83.5349 40.5542 83.4473 38.9428 83.4473 37.507C83.4473 35.3171 83.3986 33.0652 83.2914 30.7617H86.1548C86.0477 32.7657 85.999 35.2758 85.999 38.2921C85.9795 41.3393 86.0282 44.0973 86.1353 46.5661Z" fill="#910606"/>
<path d="M98.7868 43.8907L98.6992 46.5558H88.9597C89.0571 44.118 89.1058 41.36 89.1058 38.2921C89.1058 35.3481 89.0571 32.838 88.9597 30.7617H98.2511L98.1245 33.4164C95.8358 33.2822 93.7613 33.2202 91.901 33.2202C91.979 34.3461 92.0179 35.6683 92.0179 37.1971C93.6152 37.1971 95.3196 37.1558 97.1311 37.0628V39.6142C95.3488 39.5316 93.6444 39.4903 92.0179 39.4903C92.0179 41.1327 92.0471 42.6718 92.1056 44.0973C94.1996 44.0973 96.4299 44.025 98.7868 43.8907Z" fill="#910606"/>
<path d="M112.909 46.5662H109.52C108.633 43.7049 107.952 41.9385 107.484 41.2671C107.007 40.5957 106.247 40.2651 105.195 40.2651C104.757 40.2651 104.329 40.2651 103.929 40.2754C103.929 42.3517 103.968 44.4486 104.036 46.5765H100.852C100.949 44.1387 100.998 41.3807 100.998 38.3128C100.998 35.3688 100.949 32.8587 100.852 30.7825H102.829C103.053 30.7825 103.54 30.7721 104.26 30.7411C104.991 30.7205 105.663 30.6998 106.276 30.6998C109.773 30.6998 111.526 31.9704 111.526 34.5115C111.526 36.5258 110.523 37.9306 108.526 38.726V38.9119C109.296 39.1392 109.968 39.7796 110.552 40.8229C111.146 41.8559 111.925 43.7669 112.909 46.5662ZM108.614 35.3998C108.614 33.7884 107.64 32.9827 105.682 32.9827C104.962 32.9827 104.329 33.0343 103.783 33.148C103.871 34.3979 103.91 36.0403 103.91 38.0546C104.329 38.0752 104.679 38.0752 104.971 38.0752C107.406 38.0855 108.614 37.1869 108.614 35.3998Z" fill="#910606"/>
<path d="M124.061 42.2587C124.061 45.4196 121.918 47 117.633 47C116.172 47 114.818 46.8141 113.571 46.4422L114.136 43.7358C115.373 44.1903 116.542 44.4176 117.633 44.4176C118.85 44.4176 119.727 44.2936 120.262 44.0457C120.798 43.7978 121.061 43.3743 121.061 42.7855C121.061 42.176 120.808 41.6492 120.301 41.236C119.863 40.8642 118.986 40.3787 117.662 39.7796C116.454 39.2321 115.558 38.633 114.974 37.9822C114.234 37.1661 113.863 36.1538 113.863 34.9659C113.863 33.5714 114.35 32.4868 115.324 31.7018C116.298 30.9167 117.691 30.5242 119.522 30.5242C121.012 30.5242 122.269 30.6585 123.281 30.927L122.863 33.6231C121.83 33.2305 120.72 33.024 119.522 33.024C117.72 33.024 116.824 33.5301 116.824 34.5527C116.824 35.0899 117.038 35.5341 117.457 35.8749C117.827 36.1642 118.616 36.5774 119.843 37.1042C121.148 37.662 122.122 38.2817 122.775 38.9532C123.632 39.8312 124.061 40.9365 124.061 42.2587Z" fill="#910606"/>
<path d="M24.0856 20.7007H19.8489C19.9755 17.4158 20.0437 13.8108 20.0437 9.87517C20.0437 6.01187 19.9755 2.7167 19.8489 0H24.0856C23.9589 2.67538 23.8908 5.96022 23.8908 9.87517C23.8908 13.8728 23.9589 17.4778 24.0856 20.7007Z" fill="#910606"/>
<path d="M40.8178 20.7007H37.9739C37.9739 20.3701 36.9221 18.6038 34.8086 15.4222C32.5978 12.0651 31.3414 9.77189 31.0395 8.53233H30.8544C31.0492 10.309 31.1466 11.9205 31.1466 13.3563C31.1466 15.3602 31.1953 17.8084 31.3122 20.7007H28.4877C28.6046 18.1802 28.6631 15.4119 28.6631 12.3956C28.6631 9.43101 28.6046 6.90024 28.4877 4.82397H31.9063C31.9063 5.25782 32.851 6.97255 34.7502 9.97848C36.7662 13.1703 37.9252 15.3396 38.2271 16.4758H38.4025C38.2174 14.6681 38.1297 13.0361 38.1297 11.6002C38.1297 9.40002 38.0713 7.13782 37.9642 4.82397H40.8373C40.7302 6.83826 40.6717 9.36903 40.6717 12.3956C40.6523 15.4532 40.7107 18.2216 40.8178 20.7007Z" fill="#910606"/>
<path d="M53.9076 4.82401L53.8005 7.48906C51.4046 7.35477 49.2424 7.2928 47.3043 7.2928C47.4017 8.6873 47.4504 10.2264 47.4504 11.9102C48.9308 11.9102 50.6059 11.8688 52.4856 11.7862V14.3066C50.5865 14.2343 48.9015 14.193 47.4504 14.193C47.4504 16.4965 47.4893 18.6554 47.5575 20.68H44.3825C44.4799 18.2216 44.5285 15.4532 44.5285 12.375C44.5285 9.42071 44.4799 6.88994 44.3825 4.80334H53.9076V4.82401Z" fill="#910606"/>
<path d="M59.4493 20.7007H56.1964C56.2938 18.1802 56.3425 15.4119 56.3425 12.3956C56.3425 9.43101 56.2938 6.90024 56.1964 4.82397H59.4493C59.3519 6.86925 59.3032 9.40002 59.3032 12.3956C59.3032 15.4532 59.3519 18.2216 59.4493 20.7007Z" fill="#910606"/>
<path d="M75.3635 20.7007H72.5196C72.5196 20.3701 71.4677 18.6038 69.3543 15.4222C67.1434 12.0651 65.887 9.77189 65.5851 8.53233H65.4001C65.5949 10.309 65.6923 11.9205 65.6923 13.3563C65.6923 15.3602 65.741 17.8084 65.8578 20.7007H63.0334C63.1503 18.1802 63.2087 15.4119 63.2087 12.3956C63.2087 9.43101 63.1503 6.90024 63.0334 4.82397H66.4519C66.4519 5.25782 67.3967 6.97255 69.2958 9.97848C71.3119 13.1703 72.4709 15.3396 72.7728 16.4758H72.9481C72.7631 14.6681 72.6754 13.0361 72.6754 11.6002C72.6754 9.40002 72.617 7.13782 72.5098 4.82397H75.383C75.2758 6.83826 75.2174 9.36903 75.2174 12.3956C75.1979 15.4532 75.2564 18.2216 75.3635 20.7007Z" fill="#910606"/>
<path d="M82.1811 20.7007H78.9281C79.0255 18.1802 79.0742 15.4119 79.0742 12.3956C79.0742 9.43101 79.0255 6.90024 78.9281 4.82397H82.1811C82.0837 6.86925 82.035 9.40002 82.035 12.3956C82.035 15.4532 82.0837 18.2216 82.1811 20.7007Z" fill="#910606"/>
<path d="M96.2253 4.82397L96.1474 7.44771C94.6183 7.32375 93.1671 7.26177 91.8134 7.26177C91.7939 8.8009 91.7939 10.5053 91.7939 12.3956C91.7939 15.3189 91.8328 18.0873 91.9205 20.7007H88.6967C88.7941 18.1183 88.8428 15.3499 88.8428 12.3956C88.8428 10.5466 88.8234 8.83188 88.7941 7.26177C87.7131 7.26177 86.2327 7.32375 84.3432 7.45804L84.4309 4.82397H96.2253Z" fill="#910606"/>
<path d="M109.607 4.82393C109.607 5.15448 109.169 6.05316 108.292 7.51997C106.948 9.75118 106.13 11.1457 105.848 11.6932C104.971 13.3459 104.533 14.5648 104.533 15.3602C104.533 17.1472 104.582 18.9343 104.669 20.7006H101.407C101.494 18.9239 101.533 17.1266 101.533 15.3189C101.533 14.4925 101.134 13.2323 100.326 11.5485C99.9458 10.7635 99.1959 9.36898 98.0758 7.36503C97.2674 5.9292 96.8681 5.07184 96.8681 4.8136H100.481C100.481 5.10283 100.959 6.34239 101.923 8.51162C102.887 10.6912 103.364 12.0857 103.364 12.7261H103.549C103.549 12.1373 104.017 10.8048 104.962 8.72854C105.897 6.65228 106.374 5.34041 106.374 4.8136H109.607V4.82393Z" fill="#910606"/>
<path d="M12.593 10.0303C12.3983 10.3092 12.1743 10.5777 11.9308 10.836C11.6873 11.0839 11.5509 11.3421 11.5022 11.652C11.4828 11.7553 11.4828 11.8586 11.4828 11.9826C11.4925 20.3083 11.5022 28.6443 11.5022 36.97C11.5022 43.4674 12.856 46.5353 3.66202 46.5353C2.46407 46.5353 1.25638 46.556 0.00974 46.556V44.9239C0.00974 36.7428 0 28.5617 0 20.3909C0 19.9571 0.282441 19.6162 0.798629 19.4199V20.2153C0.798629 28.5824 0.808369 36.9597 0.798629 45.3267C0.798629 45.7193 0.915503 45.8019 1.25638 45.7813C2.11345 45.7399 2.11345 45.7606 2.11345 44.8722C2.11345 36.0507 2.11345 27.2292 2.12319 18.4076C2.12319 18.2217 2.23032 17.9738 2.36667 17.8498C4.05159 16.4243 5.74625 15.0092 7.4409 13.594C8.36615 12.8193 9.29139 12.0445 10.2166 11.2698C10.6257 10.9289 11.0153 10.5777 11.3951 10.2059C13.4306 8.13993 13.3138 4.56587 11.4048 2.53092C11.3367 2.45861 11.2685 2.39664 11.2101 2.33466C11.1711 2.29334 11.1224 2.25202 11.0834 2.2107C10.8594 2.01444 10.6257 1.83883 10.3725 1.69422C9.35957 1.08477 8.29797 0.816196 7.14872 0.960811C6.91498 0.9918 6.69097 0.991802 6.67149 1.35334C6.65201 1.73554 6.86628 1.81818 7.13898 1.85949C8.4538 2.06609 9.43748 2.82015 10.1874 3.95642C12.1158 6.89004 10.2848 11.0529 6.94419 11.4867C4.41195 11.8173 2.21085 9.90631 1.86023 7.54081C1.56804 5.55752 1.9771 3.74982 3.29192 2.22103C3.38931 2.10741 3.49645 1.99378 3.60358 1.88015C5.24954 0.175759 7.24611 -0.340727 9.4667 0.351361C11.8529 1.0951 13.2748 2.92345 13.6352 5.53686C13.8592 7.21026 13.5086 8.72873 12.593 10.0303Z" fill="#20327F"/>
</svg>
