<svg width="37" height="37" viewBox="0 0 37 37" fill="none" xmlns="http://www.w3.org/2000/svg">
<path d="M37 18.5C37 28.7173 28.7173 37 18.5 37C8.28273 37 0 28.7173 0 18.5C0 8.28273 8.28273 0 18.5 0C28.7173 0 37 8.28273 37 18.5Z" fill="#20327F"/>
<path d="M25.9177 17.9219L26.1056 20.9667C26.1334 21.4099 25.8481 21.821 25.2496 22.2C24.6511 22.579 23.8335 22.8793 22.7966 23.1009C21.7597 23.3225 20.6358 23.4333 19.425 23.4333C18.2142 23.4333 17.0903 23.3225 16.0534 23.1009C15.0165 22.8793 14.1988 22.579 13.6004 22.2C13.0019 21.821 12.7166 21.4099 12.7444 20.9667L12.9323 17.9219L18.924 19.6659C19.077 19.7109 19.2441 19.7333 19.425 19.7333C19.6059 19.7333 19.7729 19.7109 19.926 19.6659L25.9177 17.9219ZM31.45 14.8C31.45 14.9478 31.3735 15.0473 31.2204 15.0987L19.5294 18.4904C19.5016 18.4968 19.4668 18.5 19.425 18.5C19.3832 18.5 19.3484 18.4968 19.3206 18.4904L12.5148 16.5055C12.2156 16.7239 11.9685 17.082 11.7737 17.5798C11.5788 18.0777 11.4605 18.651 11.4188 19.2998C11.8572 19.531 12.0764 19.8811 12.0764 20.35C12.0764 20.7932 11.8746 21.1369 11.471 21.381L12.0764 25.5531C12.0903 25.6431 12.0625 25.7234 11.9929 25.794C11.9302 25.8647 11.8467 25.9 11.7424 25.9H9.73819C9.63381 25.9 9.55031 25.8647 9.48768 25.794C9.41809 25.7234 9.39025 25.6431 9.40416 25.5531L10.0096 21.381C9.60598 21.1369 9.40418 20.7932 9.40418 20.35C9.40418 19.8811 9.63034 19.5246 10.0827 19.2805C10.1592 17.9508 10.5002 16.8909 11.1056 16.1008L7.62964 15.0987C7.47655 15.0473 7.4 14.9478 7.4 14.8C7.4 14.6523 7.47655 14.5527 7.62964 14.5013L19.3206 11.1096C19.3484 11.1032 19.3832 11.1 19.425 11.1C19.4668 11.1 19.5016 11.1032 19.5294 11.1096L31.2203 14.5013C31.3734 14.5527 31.45 14.6523 31.45 14.8Z" fill="white"/>
</svg>
