<svg width="20" height="20" viewBox="0 0 20 20" fill="none" xmlns="http://www.w3.org/2000/svg">
<path fill-rule="evenodd" clip-rule="evenodd" d="M8.57563 0.773438C7.22022 0.773553 5.8845 1.0978 4.67989 1.71913C3.47528 2.34046 2.43672 3.24085 1.65087 4.34519C0.865011 5.44953 0.354642 6.72578 0.16234 8.06748C-0.0299613 9.40918 0.101381 10.7774 0.54541 12.058C0.989439 13.3386 1.73328 14.4945 2.71487 15.4292C3.69646 16.3638 4.88734 17.0502 6.18815 17.431C7.48895 17.8119 8.86197 17.8761 10.1927 17.6184C11.5233 17.3606 12.7731 16.7884 13.8376 15.9494L17.4896 19.6014C17.6782 19.7836 17.9308 19.8844 18.193 19.8821C18.4552 19.8798 18.706 19.7747 18.8915 19.5893C19.0769 19.4038 19.182 19.153 19.1843 18.8908C19.1866 18.6286 19.0858 18.376 18.9036 18.1874L15.2516 14.5354C16.2396 13.2821 16.8548 11.7758 17.0267 10.1892C17.1987 8.60249 16.9204 6.99946 16.2239 5.56353C15.5273 4.1276 14.4405 2.91679 13.0879 2.06967C11.7354 1.22254 10.1716 0.77333 8.57563 0.773438ZM2.07563 9.27344C2.07563 7.54953 2.76045 5.89623 3.97944 4.67724C5.19842 3.45826 6.85172 2.77344 8.57563 2.77344C10.2995 2.77344 11.9528 3.45826 13.1718 4.67724C14.3908 5.89623 15.0756 7.54953 15.0756 9.27344C15.0756 10.9973 14.3908 12.6506 13.1718 13.8696C11.9528 15.0886 10.2995 15.7734 8.57563 15.7734C6.85172 15.7734 5.19842 15.0886 3.97944 13.8696C2.76045 12.6506 2.07563 10.9973 2.07563 9.27344Z" fill="black"/>
</svg>
